<svg xmlns="http://www.w3.org/2000/svg" viewBox="0 0 143.58 145"><defs><style>.cls-1{fill:#048df3;}.cls-2{fill:#fff;}</style></defs><title>Logo_1</title><g id="Layer_2" data-name="Layer 2"><g id="Layer_1-2" data-name="Layer 1"><ellipse class="cls-1" cx="71.57" cy="72.5" rx="71.57" ry="72.5"/><path class="cls-2" d="M53.58,44.22a13.24,13.24,0,0,1,26.26,2.55q0,.35,0,.7a19.86,19.86,0,0,1,5-4.14A18.79,18.79,0,0,0,66.43,27.64a18.59,18.59,0,0,0-14.6,7.11A15.34,15.34,0,0,0,44.72,33a15.63,15.63,0,0,0-15.24,12.5,19.85,19.85,0,0,0,6.14,38.15,23.06,23.06,0,0,1,1.73-6.35h-.42A13.27,13.27,0,0,1,35,50.95a10.23,10.23,0,0,1-.23-2.16,9.92,9.92,0,0,1,18.8-4.57Z"/><path class="cls-2" d="M54.31,51.81l-.06-.15,0,.15Z"/><path class="cls-2" d="M127,62.2a19.63,19.63,0,0,0-36.27-5.05,16.81,16.81,0,0,0-8-2,17.15,17.15,0,0,0-17,15.5,23,23,0,0,0,5.71,45.25h55a22.5,22.5,0,0,0,3.53-.29,72.78,72.78,0,0,0,13.67-41.89A19.72,19.72,0,0,0,127,62.2Z"/><path class="cls-1" d="M89.68,80.23H82.59l-3.5,20.17h-4l3.51-20.17h-7l.58-3.29H90.26Z"/><path class="cls-1" d="M99.3,86.54a7,7,0,0,0-1.5-.16,4.47,4.47,0,0,0-4,2.08l-2.1,11.94H87.89l3-17.43,3.63,0-.39,2a5,5,0,0,1,4.13-2.32,6.23,6.23,0,0,1,1.47.24Z"/><path class="cls-1" d="M103.36,100.4H99.54l3-17.43h3.82Zm-.24-21.9A2.15,2.15,0,0,1,103.7,77a2.12,2.12,0,0,1,1.56-.66,2,2,0,0,1,1.55.57,2,2,0,0,1,.62,1.47,2,2,0,0,1-.6,1.52,2.22,2.22,0,0,1-1.54.63,2.07,2.07,0,0,1-1.55-.56A1.92,1.92,0,0,1,103.12,78.5Z"/><path class="cls-1" d="M118,100.4a5.17,5.17,0,0,1-.16-1.63,6.46,6.46,0,0,1-4.66,1.95,5.34,5.34,0,0,1-3.76-1.46A4.5,4.5,0,0,1,108,95.65a5.34,5.34,0,0,1,2.38-4.33,10.38,10.38,0,0,1,6.06-1.58l2.48,0,.23-1.19a3.6,3.6,0,0,0,0-1.18,2.1,2.1,0,0,0-2.3-1.79,3.47,3.47,0,0,0-2.15.62A2.69,2.69,0,0,0,113.58,88l-3.82,0a4.77,4.77,0,0,1,1.14-2.83,6.77,6.77,0,0,1,2.74-1.89,9.27,9.27,0,0,1,3.61-.64,6.1,6.1,0,0,1,4.45,1.72A5.09,5.09,0,0,1,123,88.64l-1.34,8.17-.13,1.45a5.15,5.15,0,0,0,.24,1.85l0,.29Zm-3.93-2.8A4.21,4.21,0,0,0,116.3,97a5.91,5.91,0,0,0,1.76-1.52l.6-3.3-1.82,0a6.4,6.4,0,0,0-3.45.81,3,3,0,0,0-1.47,2.23,2,2,0,0,0,.48,1.7A2.33,2.33,0,0,0,114.06,97.6Z"/><path class="cls-1" d="M129.17,100.4h-3.82l4.3-24.75h3.82Z"/></g></g></svg>